<svg width="10" height="12" viewBox="0 0 10 12" fill="none" xmlns="http://www.w3.org/2000/svg">
<path d="M8.55999 5.15196H7.65999V3.43767C7.65999 2.75568 7.37553 2.10163 6.86918 1.6194C6.36283 1.13716 5.67608 0.866241 4.95999 0.866241C4.24391 0.866241 3.55715 1.13716 3.0508 1.6194C2.54446 2.10163 2.25999 2.75568 2.25999 3.43767V5.15196H1.35999C1.1213 5.15196 0.892378 5.24226 0.723595 5.40301C0.554813 5.56375 0.459991 5.78177 0.459991 6.0091V10.2948C0.459991 10.5221 0.554813 10.7402 0.723595 10.9009C0.892378 11.0616 1.1213 11.152 1.35999 11.152H8.55999C8.79869 11.152 9.0276 11.0616 9.19639 10.9009C9.36517 10.7402 9.45999 10.5221 9.45999 10.2948V6.0091C9.45999 5.78177 9.36517 5.56375 9.19639 5.40301C9.0276 5.24226 8.79869 5.15196 8.55999 5.15196ZM5.85999 5.15196H4.05999V3.43767C4.05999 3.21034 4.15481 2.99232 4.3236 2.83158C4.49238 2.67083 4.7213 2.58053 4.95999 2.58053C5.19869 2.58053 5.4276 2.67083 5.59639 2.83158C5.76517 2.99232 5.85999 3.21034 5.85999 3.43767V5.15196Z" fill="#121212"/>
</svg>
