<svg width="136" height="26" viewBox="0 0 136 26" fill="none" xmlns="http://www.w3.org/2000/svg">
<path d="M29.5976 9.44293H32.7571L35.1573 15.8792H35.1981L37.4199 9.44293H40.3654L36.6199 18.9215H33.5215L29.5976 9.44293Z" fill="#121212"/>
<path d="M49.0388 17.2806C48.57 17.8768 47.9789 18.3405 47.2654 18.6667C46.552 18.9928 45.808 19.1559 45.0436 19.1559C44.3148 19.1559 43.632 19.0387 42.9848 18.8043C42.3427 18.5699 41.7821 18.2335 41.3082 17.8004C40.8343 17.3672 40.4623 16.8423 40.1871 16.2308C39.9119 15.6193 39.7794 14.9364 39.7794 14.1822C39.7794 13.428 39.917 12.7451 40.1871 12.1336C40.4623 11.5221 40.8343 10.9972 41.3082 10.564C41.7821 10.1309 42.3427 9.79454 42.9848 9.56012C43.6269 9.3257 44.3148 9.2085 45.0436 9.2085C45.7213 9.2085 46.3329 9.3257 46.8883 9.56012C47.4387 9.79454 47.9075 10.1309 48.2948 10.564C48.677 11.0023 48.9726 11.5221 49.1815 12.1336C49.3905 12.7451 49.4924 13.428 49.4924 14.1822V15.0995H42.6994C42.8166 15.66 43.0714 16.1034 43.4587 16.4346C43.8511 16.7659 44.3301 16.934 44.9009 16.934C45.3799 16.934 45.7876 16.827 46.1188 16.613C46.4501 16.399 46.7405 16.1238 46.9851 15.7823L49.0388 17.2806ZM46.5622 13.1069C46.5775 12.6126 46.4144 12.1897 46.073 11.838C45.7366 11.4864 45.2984 11.3131 44.7684 11.3131C44.4422 11.3131 44.1569 11.3641 43.9122 11.4711C43.6676 11.573 43.4536 11.7106 43.2803 11.8686C43.1071 12.0317 42.9695 12.2202 42.8727 12.4343C42.7758 12.6483 42.7198 12.8725 42.7045 13.1069H46.5622Z" fill="#121212"/>
<path d="M50.2873 9.44291H53.2124V10.9615H53.2532C53.5641 10.3755 53.9361 9.93723 54.3641 9.64675C54.7922 9.35628 55.3324 9.2085 55.9847 9.2085C56.1528 9.2085 56.321 9.21359 56.4892 9.22888C56.6573 9.24417 56.8153 9.26965 56.958 9.30532V11.9756C56.7491 11.9094 56.5452 11.8635 56.3414 11.8278C56.1375 11.7973 55.9286 11.7769 55.7095 11.7769C55.1489 11.7769 54.7107 11.8533 54.3845 12.0113C54.0584 12.1693 53.8087 12.3833 53.6354 12.6636C53.4621 12.9439 53.3449 13.2802 53.294 13.6675C53.243 14.0599 53.2175 14.488 53.2175 14.9568V18.9164H50.2924V9.44291H50.2873Z" fill="#121212"/>
<path d="M57.4421 6.45668C57.4421 5.98784 57.6103 5.59035 57.9415 5.25911C58.2728 4.92787 58.6703 4.7597 59.1391 4.7597C59.6079 4.7597 60.0054 4.92787 60.3366 5.25911C60.6679 5.59035 60.8361 5.98784 60.8361 6.45668C60.8361 6.92551 60.6679 7.323 60.3366 7.65424C60.0054 7.98548 59.6079 8.15365 59.1391 8.15365C58.6703 8.15365 58.2728 7.98548 57.9415 7.65424C57.6103 7.32809 57.4421 6.92551 57.4421 6.45668ZM57.6765 9.44294H60.6016V18.9215H57.6765V9.44294Z" fill="#121212"/>
<path d="M63.3331 11.782H61.4017V9.44293H63.3331V7.76634C63.3331 7.24655 63.379 6.75733 63.4707 6.29359C63.5624 5.82986 63.7357 5.42727 63.9956 5.07565C64.2555 4.72402 64.6275 4.44884 65.1167 4.245C65.6059 4.04116 66.2429 3.94434 67.0379 3.94434C67.3386 3.94434 67.6291 3.95962 67.9144 3.9851C68.1998 4.01058 68.4801 4.05645 68.7553 4.1227L68.6177 6.59935C68.4495 6.53311 68.2915 6.48724 68.1488 6.45157C68.0062 6.42099 67.8431 6.40061 67.6596 6.40061C67.1908 6.40061 66.8392 6.50253 66.6048 6.70127C66.3703 6.90511 66.2531 7.31789 66.2531 7.9396V9.44293H68.4189V11.782H66.2531V18.9164H63.328V11.782H63.3331Z" fill="#121212"/>
<path d="M73.8207 20.4605C73.627 20.965 73.4385 21.4134 73.255 21.8058C73.0716 22.1982 72.8423 22.5243 72.562 22.7893C72.2817 23.0543 71.9301 23.2582 71.4969 23.3958C71.0688 23.5334 70.5032 23.5996 69.7999 23.5996C69.0457 23.5996 68.317 23.4824 67.6137 23.248L68.0061 20.8478C68.4495 21.0414 68.903 21.1382 69.3719 21.1382C69.698 21.1382 69.963 21.1026 70.1719 21.0312C70.3809 20.9599 70.5542 20.858 70.6866 20.7204C70.8242 20.5828 70.9363 20.4197 71.0281 20.221C71.1198 20.0273 71.2166 19.798 71.3185 19.5381L71.5326 18.9928L67.3793 9.43781H70.5389L72.9747 15.6957H73.0155L75.0998 9.43781H78.1013L73.8207 20.4605Z" fill="#121212"/>
<path d="M78.6211 9.44291H81.429V10.7322H81.4698C81.5615 10.5487 81.6889 10.3704 81.8622 10.1869C82.0304 10.0035 82.2342 9.8404 82.4686 9.69771C82.703 9.55503 82.968 9.43782 83.2687 9.34609C83.5693 9.25436 83.8904 9.2085 84.242 9.2085C84.9045 9.2085 85.4905 9.34609 86.0052 9.61618C86.5199 9.89136 86.9072 10.3194 87.1671 10.9055C87.5035 10.2939 87.9162 9.86079 88.3953 9.60089C88.8743 9.34099 89.4654 9.2085 90.1687 9.2085C90.8057 9.2085 91.3408 9.31551 91.779 9.52955C92.2122 9.74358 92.5587 10.034 92.8135 10.4061C93.0683 10.7781 93.2467 11.2112 93.3588 11.7106C93.4709 12.21 93.5269 12.7451 93.5269 13.321V18.9164H90.6018V13.4025C90.6018 12.9592 90.505 12.5821 90.3216 12.261C90.133 11.9451 89.7967 11.782 89.3176 11.782C88.9813 11.782 88.6959 11.838 88.4717 11.9501C88.2424 12.0623 88.064 12.2151 87.9264 12.4088C87.7888 12.6024 87.692 12.8318 87.636 13.0917C87.5799 13.3516 87.5493 13.6267 87.5493 13.9121V18.9215H84.6242V13.9121C84.6242 13.7439 84.6191 13.535 84.6038 13.2904C84.5886 13.0458 84.5478 12.8114 84.4662 12.5872C84.3898 12.368 84.2624 12.1795 84.084 12.0215C83.9108 11.8635 83.6509 11.7871 83.3146 11.7871C82.9374 11.7871 82.6317 11.8533 82.3973 11.9909C82.1629 12.1285 81.9845 12.312 81.8622 12.5362C81.7399 12.7655 81.6583 13.0203 81.6176 13.3057C81.5768 13.5911 81.5615 13.8917 81.5615 14.2026V18.9215H78.6364V9.44291H78.6211Z" fill="#121212"/>
<path d="M100.458 20.4605C100.264 20.965 100.075 21.4134 99.8919 21.8058C99.7085 22.1982 99.4791 22.5243 99.1989 22.7893C98.9186 23.0543 98.5669 23.2582 98.1338 23.3958C97.7057 23.5334 97.1401 23.5996 96.4368 23.5996C95.6826 23.5996 94.9539 23.4824 94.2506 23.248L94.643 20.8478C95.0864 21.0414 95.5399 21.1382 96.0087 21.1382C96.3349 21.1382 96.5999 21.1026 96.8088 21.0312C97.0178 20.9599 97.191 20.858 97.3235 20.7204C97.4611 20.5828 97.5732 20.4197 97.6649 20.221C97.7567 20.0273 97.8535 19.798 97.9554 19.5381L98.1695 18.9928L94.0162 9.43781H97.1757L99.6116 15.6957H99.6524L101.737 9.43781H104.738L100.458 20.4605Z" fill="#121212"/>
<path d="M110.813 17.729H110.772C110.446 18.2335 110.013 18.6004 109.477 18.8196C108.937 19.0387 108.367 19.1508 107.77 19.1508C107.327 19.1508 106.904 19.0897 106.491 18.9673C106.084 18.845 105.722 18.6565 105.411 18.4119C105.1 18.1673 104.85 17.8615 104.672 17.4946C104.488 17.1328 104.397 16.7098 104.397 16.2257C104.397 15.6804 104.499 15.2167 104.697 14.8396C104.901 14.4625 105.171 14.1516 105.518 13.9019C105.864 13.6573 106.257 13.4637 106.7 13.3261C107.143 13.1885 107.602 13.0866 108.076 13.0254C108.55 12.9592 109.024 12.9235 109.498 12.9082C109.972 12.8929 110.41 12.8878 110.813 12.8878C110.813 12.368 110.629 11.9552 110.257 11.6495C109.885 11.3437 109.447 11.1908 108.942 11.1908C108.463 11.1908 108.025 11.2928 107.628 11.4915C107.23 11.6953 106.879 11.9705 106.563 12.3222L105.003 10.722C105.548 10.2175 106.185 9.8353 106.914 9.5805C107.643 9.3257 108.397 9.1983 109.177 9.1983C110.033 9.1983 110.741 9.30532 111.292 9.51935C111.842 9.73338 112.285 10.0493 112.617 10.4672C112.948 10.8851 113.177 11.3947 113.31 11.996C113.437 12.6024 113.503 13.3006 113.503 14.0905V18.9062H110.813V17.729ZM110.089 14.7682C109.87 14.7682 109.59 14.7784 109.258 14.7988C108.927 14.8192 108.606 14.8753 108.3 14.967C107.995 15.0587 107.735 15.1963 107.521 15.3747C107.307 15.5581 107.2 15.8129 107.2 16.134C107.2 16.4856 107.347 16.7455 107.648 16.9137C107.949 17.0818 108.26 17.1685 108.586 17.1685C108.871 17.1685 109.146 17.1277 109.416 17.0512C109.681 16.9748 109.921 16.8627 110.13 16.72C110.339 16.5773 110.502 16.3939 110.629 16.1747C110.751 15.9556 110.813 15.6957 110.813 15.395V14.7733H110.089V14.7682Z" fill="#121212"/>
<path d="M124.5 18.1214C124.5 19.9152 124.047 21.2758 123.145 22.2084C122.243 23.1359 120.867 23.6047 119.022 23.6047C118.176 23.6047 117.346 23.5079 116.525 23.3244C115.705 23.1359 114.951 22.769 114.263 22.2237L115.883 19.8082C116.337 20.1853 116.816 20.486 117.315 20.7051C117.814 20.9242 118.365 21.0363 118.961 21.0363C119.858 21.0363 120.515 20.8172 120.938 20.384C121.361 19.9509 121.57 19.3903 121.57 18.7176V17.8004H121.529C121.193 18.2539 120.77 18.575 120.271 18.7635C119.771 18.9521 119.297 19.0438 118.859 19.0438C118.156 19.0438 117.519 18.9215 116.948 18.682C116.377 18.4425 115.883 18.1061 115.475 17.6679C115.068 17.2347 114.752 16.7149 114.528 16.1187C114.308 15.5224 114.196 14.8651 114.196 14.1516C114.196 13.5299 114.298 12.9184 114.497 12.3171C114.701 11.7208 114.986 11.1908 115.353 10.7373C115.725 10.2838 116.174 9.91684 116.709 9.63656C117.244 9.35628 117.845 9.21869 118.523 9.21869C118.941 9.21869 119.318 9.26455 119.664 9.35628C120.011 9.44801 120.317 9.56522 120.592 9.70791C120.867 9.85059 121.096 10.0086 121.295 10.1869C121.489 10.3602 121.647 10.5335 121.764 10.7016H121.805V9.4531H124.495V18.1214H124.5ZM117.132 14.121C117.132 14.4319 117.188 14.7275 117.305 15.0078C117.422 15.288 117.585 15.5326 117.804 15.7467C118.023 15.9607 118.268 16.134 118.543 16.2614C118.823 16.3939 119.129 16.455 119.471 16.455C119.797 16.455 120.103 16.3888 120.388 16.2614C120.673 16.134 120.923 15.9607 121.137 15.7467C121.351 15.5326 121.519 15.2829 121.636 15.0078C121.754 14.7275 121.81 14.4319 121.81 14.121C121.81 13.8102 121.754 13.5146 121.636 13.2343C121.519 12.9541 121.356 12.7095 121.137 12.4954C120.923 12.2814 120.673 12.1081 120.388 11.9807C120.103 11.8533 119.797 11.7871 119.471 11.7871C119.134 11.7871 118.823 11.8533 118.543 11.9807C118.263 12.1132 118.018 12.2814 117.804 12.4954C117.59 12.7095 117.422 12.9592 117.305 13.2343C117.188 13.5146 117.132 13.8102 117.132 14.121Z" fill="#121212"/>
<path d="M134.642 17.2806C134.173 17.8768 133.582 18.3405 132.868 18.6667C132.155 18.9928 131.411 19.1559 130.646 19.1559C129.918 19.1559 129.235 19.0387 128.587 18.8043C127.945 18.5699 127.385 18.2335 126.911 17.8004C126.437 17.3672 126.065 16.8423 125.79 16.2308C125.515 15.6193 125.382 14.9364 125.382 14.1822C125.382 13.428 125.52 12.7451 125.79 12.1336C126.065 11.5221 126.437 10.9972 126.911 10.564C127.385 10.1309 127.945 9.79454 128.587 9.56012C129.23 9.3257 129.918 9.2085 130.646 9.2085C131.324 9.2085 131.936 9.3257 132.491 9.56012C133.041 9.79454 133.51 10.1309 133.897 10.564C134.28 11.0023 134.575 11.5221 134.784 12.1336C134.993 12.7451 135.095 13.428 135.095 14.1822V15.0995H128.307C128.424 15.66 128.679 16.1034 129.066 16.4346C129.459 16.7659 129.938 16.934 130.509 16.934C130.988 16.934 131.395 16.827 131.727 16.613C132.058 16.399 132.348 16.1238 132.593 15.7823L134.642 17.2806ZM132.165 13.1069C132.18 12.6126 132.017 12.1897 131.676 11.838C131.339 11.4864 130.901 11.3131 130.371 11.3131C130.045 11.3131 129.76 11.3641 129.515 11.4711C129.27 11.573 129.056 11.7106 128.883 11.8686C128.71 12.0317 128.572 12.2202 128.475 12.4343C128.379 12.6483 128.322 12.8725 128.307 13.1069H132.165Z" fill="#121212"/>
<path d="M12.3884 0C5.54445 0 0 5.54955 0 12.3935C0 19.2374 5.54955 24.7819 12.3935 24.7819C19.2374 24.7819 24.7819 19.2323 24.7819 12.3884C24.7819 5.54955 19.2374 0 12.3884 0ZM9.49386 20.8325C6.43116 20.8325 3.94431 18.3456 3.94431 15.2829C3.94431 12.2202 6.43116 9.73337 9.49386 9.73337C12.5566 9.73337 15.0434 12.2202 15.0434 15.2829C15.0485 18.3456 12.5617 20.8325 9.49386 20.8325C9.49895 20.8325 9.49386 20.8325 9.49386 20.8325Z" fill="url(#paint0_linear_1_1100)"/>
<path d="M11.4405 5.03998C6.85921 5.03998 3.13913 8.75497 3.13913 13.3414C3.13913 15.5327 4.00545 17.6322 5.54954 19.1916C3.40412 17.0258 3.41431 13.5299 5.58012 11.3845C7.74592 9.23909 11.2418 9.24928 13.3872 11.4151C15.5326 13.5809 15.5224 17.0767 13.3566 19.2222C11.2061 21.3574 7.73573 21.3574 5.58012 19.2222C8.82627 22.4581 14.0803 22.4479 17.3162 19.2018C20.5522 15.9556 20.542 10.7016 17.2958 7.46568C15.7415 5.91139 13.6369 5.03998 11.4405 5.03998Z" fill="url(#paint1_linear_1_1100)"/>
<defs>
<linearGradient id="paint0_linear_1_1100" x1="4.99509" y1="5.0079" x2="20.8338" y2="20.8429" gradientUnits="userSpaceOnUse">
<stop stop-color="#FCEE21"/>
<stop offset="1" stop-color="#F9AC19"/>
</linearGradient>
<linearGradient id="paint1_linear_1_1100" x1="16.4294" y1="18.2973" x2="5.85623" y2="7.72401" gradientUnits="userSpaceOnUse">
<stop stop-color="#FCEE21"/>
<stop offset="1" stop-color="#F9AC19"/>
</linearGradient>
</defs>
</svg>
