<svg width="76" height="77" viewBox="0 0 76 77" fill="none" xmlns="http://www.w3.org/2000/svg">
<circle cx="37.5424" cy="38.5" r="37.5434" fill="#121212"/>
<path d="M56.0038 33.1854C56.4785 34.8519 56.7064 36.5789 56.6801 38.3115C56.6794 42.1345 55.5451 45.8715 53.4207 49.0499C51.2962 52.2283 48.277 54.7053 44.7448 56.1678C41.2126 57.6304 37.326 58.0127 33.5765 57.2664C29.827 56.5201 26.383 54.6788 23.68 51.9753C20.977 49.2718 19.1363 45.8274 18.3907 42.0778C17.6451 38.3282 18.0281 34.4417 19.4913 30.9097C20.9545 27.3778 23.4321 24.359 26.6109 22.2351C29.7896 20.1113 33.5268 18.9776 37.3498 18.9776C40.9396 18.9602 44.4601 19.9661 47.4988 21.8774" fill="#121212"/>
<path d="M56.0038 33.1854C56.4785 34.8519 56.7064 36.5789 56.6801 38.3115C56.6794 42.1345 55.5451 45.8715 53.4207 49.0499C51.2962 52.2283 48.277 54.7053 44.7448 56.1678C41.2126 57.6304 37.326 58.0127 33.5765 57.2664C29.827 56.5201 26.383 54.6788 23.68 51.9753C20.977 49.2718 19.1363 45.8274 18.3907 42.0778C17.6451 38.3282 18.0281 34.4417 19.4913 30.9097C20.9545 27.3778 23.4321 24.359 26.6109 22.2351C29.7896 20.1113 33.5268 18.9776 37.3498 18.9776C40.9396 18.9602 44.4601 19.9661 47.4988 21.8774" stroke="#FBC81D" stroke-width="2.61302" stroke-miterlimit="10"/>
<path d="M29.1953 34.0211L36.9272 41.7529L58.1911 20.4896" fill="#121212"/>
<path d="M29.1953 34.0211L36.9272 41.7529L58.1911 20.4896" stroke="white" stroke-width="2.34646" stroke-miterlimit="10" stroke-linecap="square"/>
</svg>
