<svg width="78" height="20" viewBox="0 0 78 20" fill="none" xmlns="http://www.w3.org/2000/svg">
<g opacity="0.3">
<path d="M21.8583 6.70702H24.1921L25.9651 11.2522H25.9952L27.6365 6.70702H29.8122L27.0455 13.4006H24.7568L21.8583 6.70702Z" fill="#121212"/>
<path d="M36.2201 12.2419C35.8738 12.6629 35.4371 12.9904 34.9101 13.2207C34.3831 13.451 33.8335 13.5662 33.2689 13.5662C32.7306 13.5662 32.2262 13.4834 31.7481 13.3179C31.2738 13.1524 30.8597 12.9148 30.5097 12.609C30.1596 12.3031 29.8848 11.9324 29.6815 11.5006C29.4782 11.0687 29.3804 10.5865 29.3804 10.0539C29.3804 9.52126 29.482 9.03904 29.6815 8.60719C29.8848 8.17535 30.1596 7.80468 30.5097 7.49879C30.8597 7.1929 31.2738 6.95539 31.7481 6.78985C32.2224 6.6243 32.7306 6.54153 33.2689 6.54153C33.7695 6.54153 34.2212 6.6243 34.6316 6.78985C35.0381 6.95539 35.3844 7.1929 35.6705 7.49879C35.9528 7.80828 36.1711 8.17535 36.3255 8.60719C36.4798 9.03904 36.5551 9.52126 36.5551 10.0539V10.7016H31.5373C31.6239 11.0975 31.8121 11.4106 32.0982 11.6445C32.388 11.8784 32.7419 11.9972 33.1635 11.9972C33.5173 11.9972 33.8185 11.9216 34.0631 11.7705C34.3078 11.6193 34.5224 11.425 34.7031 11.1839L36.2201 12.2419ZM34.3906 9.29454C34.4019 8.94547 34.2815 8.64678 34.0293 8.39847C33.7808 8.15016 33.4571 8.0278 33.0656 8.0278C32.8247 8.0278 32.6139 8.06379 32.4332 8.13936C32.2525 8.21133 32.0944 8.3085 31.9664 8.42006C31.8385 8.53522 31.7368 8.66837 31.6653 8.81951C31.5938 8.97066 31.5524 9.129 31.5411 9.29454H34.3906Z" fill="#121212"/>
<path d="M37.142 6.70708H39.3027V7.77949H39.3328C39.5624 7.36564 39.8372 7.05615 40.1534 6.85102C40.4696 6.6459 40.8686 6.54153 41.3504 6.54153C41.4747 6.54153 41.5989 6.54513 41.7231 6.55593C41.8473 6.56673 41.964 6.58472 42.0694 6.60991V8.49563C41.9151 8.44885 41.7645 8.41646 41.6139 8.39127C41.4634 8.36968 41.309 8.35528 41.1472 8.35528C40.7331 8.35528 40.4094 8.40926 40.1685 8.52082C39.9275 8.63238 39.7431 8.78353 39.6151 8.98146C39.4871 9.17939 39.4005 9.4169 39.3629 9.6904C39.3253 9.9675 39.3064 10.2698 39.3064 10.6009V13.3971H37.1457V6.70708H37.142Z" fill="#121212"/>
<path d="M42.4264 4.59806C42.4264 4.26698 42.5506 3.98628 42.7953 3.75236C43.04 3.51845 43.3336 3.39969 43.6799 3.39969C44.0262 3.39969 44.3198 3.51845 44.5645 3.75236C44.8092 3.98628 44.9334 4.26698 44.9334 4.59806C44.9334 4.92914 44.8092 5.20984 44.5645 5.44375C44.3198 5.67767 44.0262 5.79643 43.6799 5.79643C43.3336 5.79643 43.04 5.67767 42.7953 5.44375C42.5506 5.21344 42.4264 4.92914 42.4264 4.59806ZM42.5995 6.7069H44.7603V13.4005H42.5995V6.7069Z" fill="#121212"/>
<path d="M46.7771 8.35881H45.3505V6.70701H46.7771V5.52303C46.7771 5.15597 46.811 4.81049 46.8788 4.48301C46.9465 4.15553 47.0745 3.87123 47.2665 3.62292C47.4585 3.37461 47.7333 3.18028 48.0946 3.03633C48.456 2.89238 48.9265 2.82401 49.5138 2.82401C49.7359 2.82401 49.9504 2.8348 50.1612 2.85279C50.372 2.87079 50.5791 2.90318 50.7823 2.94996L50.6807 4.69893C50.5565 4.65215 50.4398 4.61976 50.3344 4.59457C50.229 4.57298 50.1085 4.55858 49.973 4.55858C49.6267 4.55858 49.367 4.63055 49.1938 4.7709C49.0206 4.91485 48.9341 5.20635 48.9341 5.64539V6.70701H50.5339V8.35881H48.9341V13.397H46.7734V8.35881H46.7771Z" fill="#121212"/>
<path d="M54.5242 14.4874C54.3812 14.8437 54.2419 15.1604 54.1064 15.4375C53.9709 15.7146 53.8015 15.9449 53.5945 16.132C53.3874 16.3191 53.1277 16.4631 52.8077 16.5602C52.4915 16.6574 52.0737 16.7042 51.5542 16.7042C50.9971 16.7042 50.4588 16.6214 49.9393 16.4559L50.2292 14.7609C50.5567 14.8976 50.8917 14.966 51.238 14.966C51.4789 14.966 51.6747 14.9408 51.829 14.8905C51.9833 14.8401 52.1113 14.7681 52.2092 14.6709C52.3108 14.5738 52.3937 14.4586 52.4614 14.3183C52.5292 14.1815 52.6007 14.0196 52.676 13.836L52.8341 13.451L49.7662 6.7034H52.1L53.8994 11.1226H53.9295L55.4691 6.7034H57.6862L54.5242 14.4874Z" fill="#121212"/>
<path d="M58.0717 6.70708H60.1458V7.61755H60.1759C60.2436 7.48799 60.3378 7.36204 60.4657 7.23249C60.59 7.10293 60.7405 6.98777 60.9137 6.88701C61.0869 6.78625 61.2826 6.70348 61.5047 6.6387C61.7268 6.57392 61.9639 6.54153 62.2237 6.54153C62.713 6.54153 63.1459 6.6387 63.5261 6.82943C63.9063 7.02376 64.1924 7.32605 64.3844 7.7399C64.6328 7.30806 64.9377 7.00217 65.2916 6.81863C65.6454 6.6351 66.0821 6.54153 66.6015 6.54153C67.0721 6.54153 67.4673 6.61711 67.7911 6.76825C68.111 6.9194 68.367 7.12452 68.5552 7.38723C68.7434 7.64994 68.8752 7.95583 68.958 8.3085C69.0408 8.66117 69.0822 9.03904 69.0822 9.44569V13.3971H66.9215V9.50327C66.9215 9.19018 66.85 8.92388 66.7145 8.69716C66.5752 8.47404 66.3267 8.35888 65.9729 8.35888C65.7245 8.35888 65.5137 8.39847 65.348 8.47764C65.1786 8.55681 65.0469 8.66477 64.9452 8.80152C64.8436 8.93827 64.7721 9.10021 64.7307 9.28375C64.6893 9.46728 64.6667 9.66161 64.6667 9.86314V13.4007H62.506V9.86314C62.506 9.74438 62.5022 9.59684 62.4909 9.4241C62.4796 9.25136 62.4495 9.08582 62.3893 8.92748C62.3328 8.77273 62.2387 8.63958 62.107 8.52802C61.979 8.41646 61.787 8.36248 61.5386 8.36248C61.26 8.36248 61.0342 8.40926 60.861 8.50643C60.6878 8.60359 60.5561 8.73315 60.4657 8.89149C60.3754 9.05343 60.3152 9.23337 60.2851 9.43489C60.2549 9.63642 60.2437 9.84874 60.2437 10.0683V13.4007H58.0829V6.70708H58.0717Z" fill="#121212"/>
<path d="M74.2008 14.4874C74.0578 14.8437 73.9185 15.1604 73.783 15.4375C73.6475 15.7146 73.4781 15.9449 73.271 16.132C73.064 16.3191 72.8043 16.4631 72.4843 16.5602C72.1681 16.6574 71.7503 16.7042 71.2308 16.7042C70.6737 16.7042 70.1354 16.6214 69.6159 16.4559L69.9058 14.7609C70.2332 14.8976 70.5683 14.966 70.9146 14.966C71.1555 14.966 71.3512 14.9408 71.5056 14.8905C71.6599 14.8401 71.7879 14.7681 71.8858 14.6709C71.9874 14.5738 72.0702 14.4586 72.138 14.3183C72.2057 14.1815 72.2773 14.0196 72.3525 13.836L72.5106 13.451L69.4427 6.7034H71.7766L73.5759 11.1226H73.6061L75.1457 6.7034H77.3628L74.2008 14.4874Z" fill="#121212"/>
</g>
<g opacity="0.3">
<path d="M9.02625 4.92704C5.86242 4.93259 3.30618 7.53654 3.31165 10.7401C3.31165 11.2953 3.39376 11.845 3.54703 12.378C3.54703 12.3058 3.54703 12.2392 3.54703 12.167C3.54703 9.89065 5.36431 8.04734 7.60855 8.04734C9.85278 8.04734 11.6701 9.89065 11.6701 12.167C11.6701 14.4434 9.85278 16.2867 7.60855 16.2867C7.53739 16.2867 7.4717 16.2867 7.40055 16.2867H7.3896C10.4111 17.2084 13.6023 15.465 14.5055 12.3947C15.4086 9.32433 13.6954 6.09299 10.6684 5.17689C10.1374 5.01587 9.58457 4.93259 9.03172 4.93259L9.02625 4.92704Z" fill="#121212"/>
<path d="M9.71001 0.824005C4.70154 0.824005 0.640015 4.94369 0.640015 10.0239C0.640015 15.1041 4.70154 19.2238 9.71001 19.2238C14.7185 19.2238 18.78 15.1041 18.78 10.0239C18.78 4.94369 14.7185 0.824005 9.71001 0.824005ZM9.02032 17.2583C7.31799 17.2639 5.68133 16.581 4.48258 15.3539L4.46069 15.3317C1.95919 12.7722 1.97561 8.64141 4.49353 6.10408C7.01693 3.56676 11.0894 3.58341 13.5909 6.1374C16.0924 8.69693 16.076 12.8277 13.5581 15.365C12.3484 16.5754 10.7172 17.2583 9.02032 17.2583Z" fill="#121212"/>
</g>
</svg>
